<svg width="300" height="300" viewBox="0 0 300 300" fill="none" xmlns="http://www.w3.org/2000/svg">
<style>
@keyframes spin {
    from {
        transform: rotate(0deg);
    }
    to {
        transform: rotate(1turn);
    }
}

path {
    animation: spin 0.75s infinite linear;
    transform-origin: center;
}
</style>
<rect width="300" height="300" fill="#848484" fill-opacity="0.15"/>
<path d="M182.994 150C182.994 156.527 181.059 162.907 177.433 168.334C173.806 173.761 168.653 177.99 162.623 180.488C156.593 182.986 149.957 183.639 143.556 182.366C137.155 181.093 131.275 177.95 126.659 173.335C122.044 168.719 118.901 162.839 117.628 156.438C116.355 150.037 117.008 143.401 119.506 137.371C122.004 131.341 126.233 126.188 131.66 122.562C137.087 118.935 143.467 117 149.994 117C151.187 117.001 152.332 116.527 153.177 115.684C154.021 114.841 154.496 113.696 154.497 112.503C154.498 111.31 154.024 110.165 153.181 109.32C152.338 108.476 151.193 108.001 150 108C141.693 108 133.573 110.463 126.666 115.078C119.759 119.693 114.376 126.253 111.197 133.927C108.018 141.602 107.186 150.047 108.807 158.194C110.428 166.341 114.428 173.825 120.302 179.698C126.175 185.572 133.659 189.572 141.806 191.193C149.953 192.814 158.398 191.982 166.073 188.803C173.747 185.624 180.307 180.241 184.922 173.334C189.537 166.427 192 158.307 192 150C192 148.806 191.526 147.66 190.681 146.816C189.837 145.971 188.691 145.497 187.497 145.497C186.303 145.497 185.157 145.971 184.313 146.816C183.468 147.66 182.994 148.806 182.994 150Z" fill="#bcbcbc"/>
</svg>
