<svg width="74" height="19" viewBox="0 0 74 19" fill="none" xmlns="http://www.w3.org/2000/svg">
<g clip-path="url(#clip0_1_15)">
<path d="M16.5358 17.4281L15.6639 15.0496C15.6639 15.0496 14.247 16.6354 12.1223 16.6354C10.2422 16.6354 8.90732 14.9951 8.90732 12.3703C8.90732 9.00745 10.5963 7.80451 12.2584 7.80451C14.6558 7.80451 15.4186 9.36294 16.0726 11.3588L16.9444 14.0928C17.8159 16.7447 19.4507 18.877 24.1637 18.877C27.5424 18.877 29.8308 17.8382 29.8308 15.1046C29.8308 12.8898 28.5773 11.7414 26.2344 11.1946L24.4908 10.8119C23.2922 10.5386 22.9381 10.0464 22.9381 9.22617C22.9381 8.29662 23.6735 7.74997 24.8724 7.74997C26.1801 7.74997 26.8884 8.24208 26.9974 9.41762L29.7218 9.08954C29.5039 6.62897 27.8147 5.61733 25.0358 5.61733C22.584 5.61733 20.1864 6.54702 20.1864 9.52698C20.1864 11.3861 21.0854 12.5618 23.3466 13.1085L25.1995 13.546C26.5888 13.8741 27.0518 14.4481 27.0518 15.241C27.0518 16.2524 26.0711 16.6624 24.2185 16.6624C21.4666 16.6624 20.3227 15.2135 19.6687 13.2178L18.7697 10.4839C17.6256 6.92992 15.8002 5.61747 12.1763 5.61747C8.17165 5.61747 6.04646 8.15999 6.04646 12.4795C6.04646 16.6354 8.17165 18.877 11.9858 18.877C15.0643 18.877 16.5357 17.4281 16.5357 17.4281M4.87692 16.143C4.60433 16.2251 4.33203 16.2797 3.97793 16.2797C3.32393 16.2797 2.86071 15.9791 2.86071 15.1861V0.285437H0V15.8698C0 17.9199 1.41684 18.7679 3.07866 18.7679C3.62354 18.7679 4.14125 18.6857 4.79511 18.522L4.87692 16.143ZM39.3391 15.7056C38.6307 16.198 38.0314 16.4441 37.214 16.4441C36.1786 16.4441 35.6066 15.8973 35.6066 14.5576V8.15956H39.3664V5.91785H35.6337V2.88278L32.746 3.23827V5.91785H30.9203V8.15956H32.7459V15.1588C32.7459 17.6746 34.1897 18.877 36.5329 18.877C37.8134 18.877 38.9577 18.6313 39.8568 18.1119L39.3391 15.7056ZM41.8239 16.6897C41.8239 17.811 42.6958 18.7133 43.8126 18.7133C44.9843 18.7133 45.8563 17.811 45.8563 16.6897C45.8563 15.5416 44.9843 14.667 43.8126 14.667C42.6958 14.667 41.8239 15.5416 41.8239 16.6897ZM48.8177 8.15956V18.5491H51.6784V8.15956H54.8934V5.91785H51.6784V4.76944C51.6784 3.04711 52.4141 2.50031 53.613 2.50031C54.4575 2.50031 55.0297 2.69147 55.6835 3.04711L56.1466 0.640925C55.3839 0.285437 54.4848 0.0941315 53.395 0.0941315C50.9973 0.0941315 48.8177 1.24225 48.8177 4.65993V5.91785H46.9923V8.15956H48.8177ZM66.2926 8.40583C65.9655 6.35528 64.6305 5.61675 62.8868 5.61675C61.1432 5.61675 59.6449 6.40982 58.9907 8.35086L58.6366 5.91785H56.3209V18.5491H59.1816V11.4133C59.1816 8.97975 60.435 8.0502 61.77 8.0502C63.1596 8.0502 63.7316 8.97975 63.7316 10.4836V18.5491H66.5652V11.3861C66.5652 8.97975 67.8457 8.0502 69.1807 8.0502C70.543 8.0502 71.115 8.97975 71.115 10.4836V18.5491H73.9759V9.4723C73.9759 6.76545 72.3956 5.61675 70.2975 5.61675C68.527 5.61675 66.9466 6.40982 66.2926 8.40583Z" fill="#D41107"/>
</g>
<defs>
<clipPath id="clip0_1_15">
<rect width="74" height="19" fill="white"/>
</clipPath>
</defs>
</svg>
